<svg xmlns="http://www.w3.org/2000/svg" xmlns:xlink="http://www.w3.org/1999/xlink" width="512" height="512" x="0" y="0" viewBox="0 0 512 512" style="enable-background:new 0 0 512 512" xml:space="preserve" class=""><g><path d="M93.867 426.667h409.6c5.12 0 8.533-3.413 8.533-8.533V8.533C512 3.413 508.587 0 503.467 0H93.866c-5.12 0-8.533 3.413-8.533 8.533V418.133c0 5.12 3.414 8.534 8.534 8.534zm8.533-136.534h85.333c-4.267 45.227-40.107 81.067-85.333 85.333v-85.333zm0-273.066h136.533v51.2H230.4c-5.12 0-8.533 3.413-8.533 8.533s3.413 8.533 8.533 8.533h34.133c5.12 0 8.533-3.413 8.533-8.533s-3.413-8.533-8.533-8.533H256v-51.2h76.8v93.867c0 5.12 3.413 8.533 8.533 8.533h34.133V128c0 5.12 3.413 8.533 8.533 8.533s8.533-3.413 8.533-8.533V93.867c0-5.12-3.413-8.533-8.533-8.533s-8.533 3.413-8.533 8.533v8.533h-25.6V17.067h145.067V102.4H460.8v-8.533c0-5.12-3.413-8.533-8.533-8.533-5.12 0-8.533 3.413-8.533 8.533V128c0 5.12 3.413 8.533 8.533 8.533 5.12 0 8.533-3.413 8.533-8.533v-8.533h34.133V256h-51.2v-8.533c0-5.12-3.413-8.533-8.533-8.533s-8.533 3.413-8.533 8.533V281.6c0 5.12 3.413 8.533 8.533 8.533s8.533-3.413 8.533-8.533v-8.533h51.2V409.6H307.2V273.067h51.2v8.533c0 5.12 3.413 8.533 8.533 8.533s8.533-3.413 8.533-8.533v-34.133c0-5.12-3.413-8.533-8.533-8.533s-8.533 3.413-8.533 8.533V256h-59.733c-5.12 0-8.533 3.413-8.533 8.533V409.6H102.4v-17.388c57.425-4.332 102.4-52.044 102.4-110.612 0-5.12-3.413-8.533-8.533-8.533H102.4v-51.2h145.067c5.12 0 8.533-3.413 8.533-8.533V153.6h8.533c5.12 0 8.533-3.413 8.533-8.533 0-5.12-3.413-8.533-8.533-8.533H230.4c-5.12 0-8.533 3.413-8.533 8.533 0 5.12 3.413 8.533 8.533 8.533h8.533v51.2H102.4V17.067zM65.707 424.107c3.413-3.413 3.413-8.533 0-11.947-3.413-3.413-8.533-3.413-11.947 0l-11.093 11.093V29.013L53.76 40.107c1.707 1.707 3.413 2.56 5.973 2.56s4.267-.853 5.973-2.56c3.413-3.413 3.413-8.533 0-11.947L41.567 4.02C40.172 1.511 37.532 0 34.133 0s-6.038 1.511-7.434 4.02L2.56 28.16c-3.413 3.413-3.413 8.533 0 11.947s8.533 3.413 11.947 0L25.6 29.013v394.24L14.507 412.16c-3.413-3.413-8.533-3.413-11.947 0-3.413 3.413-3.413 8.533 0 11.947l24.14 24.14c1.395 2.509 4.034 4.02 7.434 4.02 3.399 0 6.038-1.511 7.433-4.02l24.14-24.14zM512 477.874v-.016c-.002-3.395-1.512-6.031-4.02-7.426l-24.14-24.14c-3.413-3.413-8.533-3.413-11.947 0-3.413 3.413-3.413 8.533 0 11.947l11.093 11.093H88.747L99.84 458.24c3.413-3.413 3.413-8.533 0-11.947-3.413-3.413-8.533-3.413-11.947 0l-24.14 24.14c-2.509 1.395-4.02 4.034-4.02 7.434s1.511 6.038 4.02 7.434l24.14 24.14c1.707 1.707 3.413 2.56 5.973 2.56s4.267-.853 5.973-2.56c3.413-3.413 3.413-8.533 0-11.947L88.747 486.4h394.24l-11.093 11.093c-3.413 3.413-3.413 8.533 0 11.947 1.707 1.707 3.413 2.56 5.973 2.56s4.267-.853 5.973-2.56l24.14-24.14c2.507-1.394 4.017-4.03 4.02-7.426z" fill="" opacity="1" data-original="#000000" class=""></path></g></svg>