<svg xmlns="http://www.w3.org/2000/svg" xmlns:xlink="http://www.w3.org/1999/xlink" width="512" height="512" x="0" y="0" viewBox="0 0 512 512" style="enable-background:new 0 0 512 512" xml:space="preserve" fill-rule="evenodd" class=""><g><path d="M388 367c-1 0-2-1-4-1-3-2-4-6-2-10 11-20 17-44 17-68 0-79-64-143-143-143s-143 64-143 143c0 24 6 48 17 68 2 4 1 8-2 10-4 2-8 0-10-3-12-23-19-49-19-75 0-86 70-157 157-157s157 71 157 157c0 26-7 52-19 75-1 2-4 4-6 4z" fill="" opacity="1" data-original="#000000" class=""></path><path d="M256 145c-4 0-7-3-7-7V82c0-3 3-7 7-7s7 4 7 7v56c0 4-3 7-7 7zM362 189c-2 0-4-1-5-2-3-3-3-7 0-10l40-39c2-3 7-3 9 0 3 2 3 7 0 10l-39 39c-1 1-3 2-5 2zM462 295h-56c-4 0-7-3-7-7s3-7 7-7h56c4 0 7 3 7 7s-3 7-7 7zM106 295H50c-4 0-7-3-7-7s3-7 7-7h56c4 0 7 3 7 7s-3 7-7 7zM150 189c-2 0-4-1-5-2l-39-39c-3-3-3-8 0-10 2-3 7-3 9 0l40 39c3 3 3 7 0 10-1 1-3 2-5 2zM295 150h-2c-4-1-6-5-5-8l7-27c1-4 5-6 9-5s6 4 5 8l-7 27c-1 3-4 5-7 5zM331 165c-1 0-2 0-4-1-3-2-4-6-2-9l14-24c2-4 6-5 9-3 4 2 5 6 3 10l-14 24c-1 2-4 3-6 3zM386 220c-3 0-5-1-6-3-2-4-1-8 2-10l25-14c3-2 7-1 9 3 2 3 1 7-2 9l-25 14c-1 1-2 1-3 1zM401 256c-3 0-6-2-7-5-1-4 1-7 5-8l27-8c4-1 8 2 9 5 1 4-2 8-5 9l-27 7h-2zM428 341h-2l-27-7c-4-1-6-5-5-9s5-6 9-5l27 7c3 1 6 5 5 9-1 3-4 5-7 5zM84 341c-3 0-6-2-7-5-1-4 2-8 5-9l27-7c4-1 8 1 9 5s-1 8-5 9l-27 7h-2zM111 256h-2l-27-7c-3-1-6-5-5-9 1-3 5-6 9-5l27 8c4 1 6 4 5 8-1 3-4 5-7 5zM126 220c-1 0-2 0-3-1l-25-14c-3-2-4-6-2-9 2-4 6-5 9-3l25 14c3 2 4 6 2 10-1 2-3 3-6 3zM181 165c-2 0-5-1-6-3l-14-24c-2-4-1-8 3-10 3-2 7-1 9 3l14 24c2 3 1 7-2 9-2 1-3 1-4 1zM217 150c-3 0-6-2-7-5l-7-27c-1-4 1-7 5-8s8 1 9 5l7 27c1 3-1 7-5 8h-2zM505 367H7c-4 0-7-3-7-7s3-7 7-7h498c4 0 7 3 7 7s-3 7-7 7zM72 124c-2 0-4-1-6-3-14-19-33-9-35-8-3 2-7 1-9-3-2-3-1-7 2-9 8-5 24-9 39-1 2-17 15-28 23-31 4-2 8 0 9 3 2 4 0 8-3 9-2 1-21 11-14 33 1 4 0 7-3 9-1 0-2 1-3 1zM440 124c-1 0-2-1-3-1-3-2-4-5-3-9 7-23-13-32-14-33-3-1-5-5-3-9 1-3 5-5 9-3 8 3 21 14 23 31 15-8 31-4 39 1 3 2 4 6 2 9-2 4-6 5-9 3-2-1-21-11-35 8-2 2-4 3-6 3zM477 405H35c-4 0-7-3-7-7 0-3 3-7 7-7h442c4 0 7 4 7 7 0 4-3 7-7 7zM429 444H83c-4 0-7-3-7-7s3-7 7-7h346c4 0 7 3 7 7s-3 7-7 7z" fill="" opacity="1" data-original="#000000" class=""></path></g></svg>